<svg width="48" height="48" viewBox="0 0 48 48" fill="none" xmlns="http://www.w3.org/2000/svg">
<path fill-rule="evenodd" clip-rule="evenodd" d="M25.213 6.69914L28.113 5.28114C29.451 4.62714 31.069 5.15114 31.767 6.46914L33.281 9.32114C33.681 10.0731 34.405 10.5991 35.245 10.7471L38.425 11.3051C39.893 11.5631 40.891 12.9371 40.683 14.4131L40.231 17.6091C40.111 18.4531 40.389 19.3051 40.981 19.9171L43.225 22.2371C44.261 23.3071 44.261 25.0071 43.225 26.0791L40.981 28.3991C40.389 29.0111 40.111 29.8631 40.231 30.7071L40.683 33.9031C40.891 35.3791 39.893 36.7531 38.425 37.0111L35.245 37.5691C34.405 37.7171 33.681 38.2431 33.281 38.9951L31.767 41.8471C31.069 43.1631 29.453 43.6891 28.113 43.0351L25.213 41.6171C24.447 41.2431 23.553 41.2431 22.787 41.6171L19.887 43.0351C18.549 43.6891 16.931 43.1651 16.233 41.8471L14.721 38.9951C14.321 38.2431 13.597 37.7171 12.757 37.5691L9.577 37.0111C8.109 36.7531 7.111 35.3791 7.319 33.9031L7.771 30.7071C7.891 29.8631 7.613 29.0111 7.021 28.3991L4.777 26.0791C3.741 25.0091 3.741 23.3091 4.777 22.2371L7.021 19.9171C7.613 19.3051 7.891 18.4531 7.771 17.6091L7.321 14.4131C7.111 12.9391 8.111 11.5631 9.579 11.3071L12.759 10.7491C13.597 10.6011 14.321 10.0751 14.721 9.32314L16.235 6.47114C16.933 5.15514 18.549 4.62914 19.889 5.28314L22.789 6.70114C23.553 7.07514 24.449 7.07514 25.213 6.69914Z" fill="#026490"/>
<path fill-rule="evenodd" clip-rule="evenodd" d="M30.6667 20.6667H17.3333C16.8733 20.6667 16.5 21.0401 16.5 21.5001V23.1667C16.5 23.6267 16.8733 24.0001 17.3333 24.0001H30.6667C31.1267 24.0001 31.5 23.6267 31.5 23.1667V21.5001C31.5 21.0401 31.1267 20.6667 30.6667 20.6667Z" stroke="white" stroke-width="1.5" stroke-linecap="round" stroke-linejoin="round"/>
<path d="M24 31.5001V20.6667" stroke="white" stroke-width="1.5" stroke-linecap="round" stroke-linejoin="round"/>
<path d="M27.08 19.51C26.1817 20.445 24.7675 20.6667 24.0825 20.6667" stroke="white" stroke-width="1.5" stroke-linecap="round" stroke-linejoin="round"/>
<path d="M24.0825 20.6666C24.0825 20.6666 23.6708 18.0699 24.6833 17.0166" stroke="white" stroke-width="1.5" stroke-linecap="round" stroke-linejoin="round"/>
<path d="M27.08 19.5101C27.7417 18.8217 27.7417 17.7051 27.08 17.0167C26.4184 16.3284 25.3459 16.3284 24.6842 17.0167" stroke="white" stroke-width="1.5" stroke-linecap="round" stroke-linejoin="round"/>
<path d="M20.92 19.51C21.8184 20.445 23.2325 20.6667 23.9175 20.6667" stroke="white" stroke-width="1.5" stroke-linecap="round" stroke-linejoin="round"/>
<path d="M23.9175 20.6666C23.9175 20.6666 24.3292 18.0699 23.3167 17.0166" stroke="white" stroke-width="1.5" stroke-linecap="round" stroke-linejoin="round"/>
<path d="M20.92 19.5101C20.2583 18.8217 20.2583 17.7051 20.92 17.0167C21.5816 16.3284 22.6541 16.3284 23.3158 17.0167" stroke="white" stroke-width="1.5" stroke-linecap="round" stroke-linejoin="round"/>
<path d="M29.8333 24V30.6667C29.8333 31.1267 29.46 31.5 29 31.5H19C18.54 31.5 18.1666 31.1267 18.1666 30.6667V24" stroke="white" stroke-width="1.5" stroke-linecap="round" stroke-linejoin="round"/>
</svg>
