<svg width="40" height="39" viewBox="0 0 40 39" fill="none" xmlns="http://www.w3.org/2000/svg">
<path fill-rule="evenodd" clip-rule="evenodd" d="M21.213 1.69914L24.113 0.281143C25.451 -0.372857 27.069 0.151143 27.767 1.46914L29.281 4.32114C29.681 5.07314 30.405 5.59914 31.245 5.74714L34.425 6.30514C35.893 6.56314 36.891 7.93714 36.683 9.41314L36.231 12.6091C36.111 13.4531 36.389 14.3051 36.981 14.9171L39.225 17.2371C40.261 18.3071 40.261 20.0071 39.225 21.0791L36.981 23.3991C36.389 24.0111 36.111 24.8631 36.231 25.7071L36.683 28.9031C36.891 30.3791 35.893 31.7531 34.425 32.0111L31.245 32.5691C30.405 32.7171 29.681 33.2431 29.281 33.9951L27.767 36.8471C27.069 38.1631 25.453 38.6891 24.113 38.0351L21.213 36.6171C20.447 36.2431 19.553 36.2431 18.787 36.6171L15.887 38.0351C14.549 38.6891 12.931 38.1651 12.233 36.8471L10.721 33.9951C10.321 33.2431 9.597 32.7171 8.757 32.5691L5.577 32.0111C4.109 31.7531 3.111 30.3791 3.319 28.9031L3.771 25.7071C3.891 24.8631 3.613 24.0111 3.021 23.3991L0.777 21.0791C-0.259 20.0091 -0.259 18.3091 0.777 17.2371L3.021 14.9171C3.613 14.3051 3.891 13.4531 3.771 12.6091L3.321 9.41314C3.111 7.93914 4.111 6.56314 5.579 6.30714L8.759 5.74914C9.597 5.60114 10.321 5.07514 10.721 4.32314L12.235 1.47114C12.933 0.155143 14.549 -0.370857 15.889 0.283143L18.789 1.70114C19.553 2.07514 20.449 2.07514 21.213 1.69914Z" fill="#026490"/>
</svg>
