<svg width="41" height="39" viewBox="0 0 41 39" fill="none" xmlns="http://www.w3.org/2000/svg">
<path fill-rule="evenodd" clip-rule="evenodd" d="M21.713 2.03923L24.613 0.62123C25.951 -0.0327696 27.569 0.49123 28.267 1.80923L29.781 4.66123C30.181 5.41323 30.905 5.93923 31.745 6.08723L34.925 6.64523C36.393 6.90323 37.391 8.27723 37.183 9.75323L36.731 12.9492C36.611 13.7932 36.889 14.6452 37.481 15.2572L39.725 17.5772C40.761 18.6472 40.761 20.3472 39.725 21.4192L37.481 23.7392C36.889 24.3512 36.611 25.2032 36.731 26.0472L37.183 29.2432C37.391 30.7192 36.393 32.0932 34.925 32.3512L31.745 32.9092C30.905 33.0572 30.181 33.5832 29.781 34.3352L28.267 37.1872C27.569 38.5032 25.953 39.0292 24.613 38.3752L21.713 36.9572C20.947 36.5832 20.053 36.5832 19.287 36.9572L16.387 38.3752C15.049 39.0292 13.431 38.5052 12.733 37.1872L11.221 34.3352C10.821 33.5832 10.097 33.0572 9.257 32.9092L6.077 32.3512C4.609 32.0932 3.611 30.7192 3.819 29.2432L4.271 26.0472C4.391 25.2032 4.113 24.3512 3.521 23.7392L1.277 21.4192C0.241 20.3492 0.241 18.6492 1.277 17.5772L3.521 15.2572C4.113 14.6452 4.391 13.7932 4.271 12.9492L3.821 9.75323C3.611 8.27923 4.611 6.90323 6.079 6.64723L9.259 6.08923C10.097 5.94123 10.821 5.41523 11.221 4.66323L12.735 1.81123C13.433 0.49523 15.049 -0.0307696 16.389 0.62323L19.289 2.04123C20.053 2.41523 20.949 2.41523 21.713 2.03923Z" fill="white"/>
</svg>
