<svg width="40" height="40" viewBox="0 0 40 40" fill="none" xmlns="http://www.w3.org/2000/svg">
<path fill-rule="evenodd" clip-rule="evenodd" d="M21.213 2.53923L24.113 1.12123C25.451 0.46723 27.069 0.99123 27.767 2.30923L29.281 5.16123C29.681 5.91323 30.405 6.43923 31.245 6.58723L34.425 7.14523C35.893 7.40323 36.891 8.77723 36.683 10.2532L36.231 13.4492C36.111 14.2932 36.389 15.1452 36.981 15.7572L39.225 18.0772C40.261 19.1472 40.261 20.8472 39.225 21.9192L36.981 24.2392C36.389 24.8512 36.111 25.7032 36.231 26.5472L36.683 29.7432C36.891 31.2192 35.893 32.5932 34.425 32.8512L31.245 33.4092C30.405 33.5572 29.681 34.0832 29.281 34.8352L27.767 37.6872C27.069 39.0032 25.453 39.5292 24.113 38.8752L21.213 37.4572C20.447 37.0832 19.553 37.0832 18.787 37.4572L15.887 38.8752C14.549 39.5292 12.931 39.0052 12.233 37.6872L10.721 34.8352C10.321 34.0832 9.597 33.5572 8.757 33.4092L5.577 32.8512C4.109 32.5932 3.111 31.2192 3.319 29.7432L3.771 26.5472C3.891 25.7032 3.613 24.8512 3.021 24.2392L0.777 21.9192C-0.259 20.8492 -0.259 19.1492 0.777 18.0772L3.021 15.7572C3.613 15.1452 3.891 14.2932 3.771 13.4492L3.321 10.2532C3.111 8.77923 4.111 7.40323 5.579 7.14723L8.759 6.58923C9.597 6.44123 10.321 5.91523 10.721 5.16323L12.235 2.31123C12.933 0.99523 14.549 0.46923 15.889 1.12323L18.789 2.54123C19.553 2.91523 20.449 2.91523 21.213 2.53923Z" fill="white"/>
</svg>
