<svg width="41" height="39" viewBox="0 0 41 39" fill="none" xmlns="http://www.w3.org/2000/svg">
<path fill-rule="evenodd" clip-rule="evenodd" d="M21.713 2.19914L24.613 0.781143C25.951 0.127143 27.569 0.651143 28.267 1.96914L29.781 4.82114C30.181 5.57314 30.905 6.09914 31.745 6.24714L34.925 6.80514C36.393 7.06314 37.391 8.43714 37.183 9.91314L36.731 13.1091C36.611 13.9531 36.889 14.8051 37.481 15.4171L39.725 17.7371C40.761 18.8071 40.761 20.5071 39.725 21.5791L37.481 23.8991C36.889 24.5111 36.611 25.3631 36.731 26.2071L37.183 29.4031C37.391 30.8791 36.393 32.2531 34.925 32.5111L31.745 33.0691C30.905 33.2171 30.181 33.7431 29.781 34.4951L28.267 37.3471C27.569 38.6631 25.953 39.1891 24.613 38.5351L21.713 37.1171C20.947 36.7431 20.053 36.7431 19.287 37.1171L16.387 38.5351C15.049 39.1891 13.431 38.6651 12.733 37.3471L11.221 34.4951C10.821 33.7431 10.097 33.2171 9.257 33.0691L6.077 32.5111C4.609 32.2531 3.611 30.8791 3.819 29.4031L4.271 26.2071C4.391 25.3631 4.113 24.5111 3.521 23.8991L1.277 21.5791C0.241 20.5091 0.241 18.8091 1.277 17.7371L3.521 15.4171C4.113 14.8051 4.391 13.9531 4.271 13.1091L3.821 9.91314C3.611 8.43914 4.611 7.06314 6.079 6.80714L9.259 6.24914C10.097 6.10114 10.821 5.57514 11.221 4.82314L12.735 1.97114C13.433 0.655143 15.049 0.129143 16.389 0.783143L19.289 2.20114C20.053 2.57514 20.949 2.57514 21.713 2.19914Z" fill="#013A67"/>
</svg>
