<svg width="86" height="20" viewBox="0 0 86 20" fill="none" xmlns="http://www.w3.org/2000/svg">
<rect x="64.8218" y="-0.632812" width="21.2656" height="21.2656" rx="10.6328" fill="#013A67"/>
<rect x="64.8218" y="-0.632812" width="21.2656" height="21.2656" rx="10.6328" stroke="white" stroke-width="1.26562"/>
<path d="M72.2983 12.7784V7.97727H73.2536V12.7784H72.2983ZM70.3772 10.8537V9.90199H75.1783V10.8537H70.3772ZM79.2408 14.0994C78.7531 14.0994 78.3175 14.0154 77.934 13.8473C77.5528 13.6792 77.251 13.446 77.0285 13.1477C76.8083 12.8471 76.6899 12.4991 76.6733 12.1037H77.7884C77.8026 12.3191 77.8748 12.5062 78.005 12.6648C78.1376 12.821 78.3104 12.9418 78.5235 13.027C78.7366 13.1122 78.9733 13.1548 79.2337 13.1548C79.5202 13.1548 79.7735 13.1051 79.9937 13.0057C80.2162 12.9062 80.3902 12.7678 80.5157 12.5902C80.6411 12.4103 80.7039 12.2031 80.7039 11.9688C80.7039 11.7249 80.6411 11.5107 80.5157 11.326C80.3926 11.139 80.2115 10.9922 79.9723 10.8857C79.7356 10.7791 79.4491 10.7259 79.113 10.7259H78.4986V9.83097H79.113C79.3829 9.83097 79.6196 9.78243 79.8232 9.68537C80.0292 9.5883 80.1901 9.45336 80.3062 9.28054C80.4222 9.10535 80.4802 8.90057 80.4802 8.66619C80.4802 8.44129 80.4293 8.24598 80.3275 8.08026C80.228 7.91217 80.086 7.78078 79.9013 7.68608C79.719 7.59138 79.5036 7.54403 79.255 7.54403C79.0183 7.54403 78.7969 7.58783 78.591 7.67543C78.3874 7.76065 78.2216 7.88376 78.0938 8.04474C77.966 8.20336 77.8973 8.39394 77.8878 8.61648H76.826C76.8379 8.22348 76.9539 7.87784 77.1741 7.57955C77.3966 7.28125 77.6901 7.04806 78.0547 6.87997C78.4193 6.71188 78.8241 6.62784 79.2692 6.62784C79.7356 6.62784 80.1381 6.71899 80.4766 6.90128C80.8175 7.0812 81.0803 7.3215 81.265 7.62216C81.452 7.92282 81.5443 8.25189 81.5419 8.60938C81.5443 9.01657 81.4307 9.36222 81.201 9.64631C80.9738 9.9304 80.6707 10.121 80.2919 10.218V10.2749C80.7749 10.3482 81.149 10.54 81.4141 10.8501C81.6816 11.1603 81.8142 11.545 81.8118 12.0043C81.8142 12.4044 81.7029 12.763 81.478 13.0803C81.2555 13.3975 80.9513 13.6473 80.5654 13.8295C80.1795 14.0095 79.738 14.0994 79.2408 14.0994Z" fill="white"/>
<rect x="48.0909" y="-1" width="22" height="22" rx="11" fill="#32BCAD"/>
<rect x="48.0909" y="-1" width="22" height="22" rx="11" stroke="white" stroke-width="2"/>
<path d="M62.245 12.9807C62.0277 12.9813 61.8124 12.9388 61.6117 12.8558C61.4109 12.7728 61.2286 12.6508 61.0753 12.4969L59.3862 10.8096C59.2676 10.6908 59.061 10.6913 58.9424 10.8096L57.2472 12.5031C57.0939 12.657 56.9116 12.7789 56.7109 12.862C56.5101 12.945 56.2948 12.9875 56.0775 12.9869H55.745L57.8838 15.1239C58.2046 15.4445 58.6398 15.6245 59.0935 15.6245C59.5473 15.6245 59.9825 15.4445 60.3033 15.1239L62.4484 12.9807H62.245Z" fill="white"/>
<path d="M56.0774 7.01256C56.2947 7.01199 56.51 7.05446 56.7107 7.13752C56.9115 7.22058 57.0938 7.34257 57.2471 7.49644L58.9423 9.19015C59.0012 9.24891 59.081 9.28191 59.1642 9.28191C59.2475 9.28191 59.3273 9.24891 59.3862 9.19015L61.0752 7.50251C61.2285 7.34864 61.4108 7.22665 61.6115 7.14359C61.8123 7.06054 62.0275 7.01806 62.2448 7.01863H62.4484L60.3031 4.87574C60.1442 4.71699 59.9556 4.59106 59.7481 4.50514C59.5405 4.41922 59.318 4.375 59.0933 4.375C58.8686 4.375 58.6461 4.41922 58.4385 4.50514C58.231 4.59106 58.0424 4.71699 57.8835 4.87574L55.7446 7.01256H56.0774Z" fill="white"/>
<path d="M64.2259 8.79105L62.9294 7.49657C62.9003 7.50856 62.8692 7.51486 62.8377 7.51512H62.2483C61.9415 7.51598 61.6474 7.6377 61.4299 7.85387L59.7406 9.54059C59.5885 9.69236 59.3823 9.77761 59.1673 9.77761C58.9522 9.77761 58.746 9.69236 58.5939 9.54059L56.8989 7.84711C56.6814 7.63097 56.3874 7.50925 56.0806 7.50836H55.3559C55.326 7.50785 55.2965 7.50187 55.2687 7.49072L53.9672 8.79105C53.8083 8.94974 53.6822 9.13815 53.5962 9.34552C53.5102 9.55289 53.4659 9.77515 53.4659 9.99961C53.4659 10.2241 53.5102 10.4463 53.5962 10.6537C53.6822 10.8611 53.8083 11.0495 53.9672 11.2082L55.2686 12.5083C55.2963 12.4971 55.3259 12.4912 55.3558 12.4906H56.0806C56.3874 12.4898 56.6815 12.3681 56.899 12.152L58.5941 10.4584C58.9005 10.1525 59.4346 10.1524 59.7408 10.4584L61.43 12.1456C61.6474 12.3618 61.9415 12.4835 62.2483 12.4843H62.8376C62.8691 12.4846 62.9002 12.4909 62.9293 12.5029L64.2251 11.2084C64.384 11.0497 64.51 10.8613 64.596 10.6539C64.682 10.4466 64.7263 10.2243 64.7263 9.99984C64.7263 9.77539 64.682 9.55313 64.596 9.34576C64.51 9.1384 64.384 8.94998 64.2251 8.79128L64.2259 8.79105Z" fill="white"/>
<rect x="31.7273" y="-1" width="22" height="22" rx="11" fill="#09233D"/>
<rect x="31.7273" y="-1" width="22" height="22" rx="11" stroke="white" stroke-width="2"/>
<path d="M36.9773 5.5H36.4773V13.75H36.9773V5.5Z" fill="white"/>
<path d="M38.4773 5.5H37.7273V12.5H38.4773V5.5Z" fill="white"/>
<path d="M39.7273 5.5H39.2273V12.5H39.7273V5.5Z" fill="white"/>
<path d="M40.9773 5.5H40.2273V12.5H40.9773V5.5Z" fill="white"/>
<path d="M41.9773 5.5H41.4773V12.5H41.9773V5.5Z" fill="white"/>
<path d="M35.4773 4.00024C35.3273 4.00024 35.2273 4.10023 35.2273 4.25023V5.50024H35.7273V4.50025H36.7273V4.00024H35.4773Z" fill="white"/>
<path d="M42.9773 5.5H42.4773V13.75H42.9773V5.5Z" fill="white"/>
<path d="M45.4773 5.5H44.7273V12.5H45.4773V5.5Z" fill="white"/>
<path d="M46.7273 5.5H46.2273V12.5H46.7273V5.5Z" fill="white"/>
<path d="M47.9773 5.5H47.2273V12.5H47.9773V5.5Z" fill="white"/>
<path d="M48.9773 5.5H48.4773V13.75H48.9773V5.5Z" fill="white"/>
<path d="M35.7273 15.5V14.5H35.2273V15.75C35.2273 15.9 35.3273 16 35.4773 16H36.7273V15.5H35.7273Z" fill="white"/>
<path d="M49.7273 14.5V15.5H48.7273V16H49.9773C50.1273 16 50.2273 15.9 50.2273 15.75V14.5H49.7273Z" fill="white"/>
<path d="M49.9773 4.00024H48.7273V4.50025H49.7273V5.50024H50.2273V4.25023C50.2273 4.10023 50.1273 4.00024 49.9773 4.00024Z" fill="white"/>
<path d="M37.9773 13H37.4773V13.75H37.9773V13Z" fill="white"/>
<path d="M38.9773 13H38.4773V13.75H38.9773V13Z" fill="white"/>
<path d="M39.9773 13H39.4773V13.75H39.9773V13Z" fill="white"/>
<path d="M40.9773 13H40.4773V13.75H40.9773V13Z" fill="white"/>
<path d="M41.9773 13H41.4773V13.75H41.9773V13Z" fill="white"/>
<path d="M43.9773 13H43.4773V13.75H43.9773V13Z" fill="white"/>
<path d="M44.9773 13H44.4773V13.75H44.9773V13Z" fill="white"/>
<path d="M45.9773 13H45.4773V13.75H45.9773V13Z" fill="white"/>
<path d="M46.9773 13H46.4773V13.75H46.9773V13Z" fill="white"/>
<path d="M47.9773 13H47.4773V13.75H47.9773V13Z" fill="white"/>
<path d="M44.2273 5.5H43.7273V12.5H44.2273V5.5Z" fill="white"/>
<rect x="15.3636" y="-1" width="22" height="22" rx="11" fill="#397ABC"/>
<rect x="15.3636" y="-1" width="22" height="22" rx="11" stroke="white" stroke-width="2"/>
<path d="M20.1136 6.94008H32.6136L26.3636 3.125L20.1136 6.94008ZM24.4892 5.69941L26.3636 4.55178L28.2381 5.69941H24.4892Z" fill="white"/>
<path d="M32.1664 7.56055H20.5601V8.80123H32.1664V7.56055Z" fill="white"/>
<path d="M32.1664 14.3843H20.5601V15.625H32.1664V14.3843Z" fill="white"/>
<path d="M26.9436 9.42139H25.783V13.7638H26.9436V9.42139Z" fill="white"/>
<path d="M24.6221 9.42139H23.4614V13.7638H24.6221V9.42139Z" fill="white"/>
<path d="M22.3015 9.42139H21.1409V13.7638H22.3015V9.42139Z" fill="white"/>
<path d="M31.5865 9.42139H30.4259V13.7638H31.5865V9.42139Z" fill="white"/>
<path d="M29.265 9.42139H28.1044V13.7638H29.265V9.42139Z" fill="white"/>
<rect x="-1" y="-1" width="22" height="22" rx="11" fill="#151515"/>
<rect x="-1" y="-1" width="22" height="22" rx="11" stroke="white" stroke-width="2"/>
<path d="M17.3125 9.99999C17.3125 12.4875 15.3 14.5 12.8125 14.5C11.7625 14.5 10.8 14.1375 10.0375 13.5375C11.0875 12.7125 11.75 11.4375 11.75 9.99999C11.75 8.56249 11.075 7.2875 10.0375 6.4625C10.8 5.8625 11.7625 5.5 12.8125 5.5C15.3 5.5 17.3125 7.525 17.3125 9.99999Z" fill="#F79E1B"/>
<path d="M10.0375 6.4625C10.0375 6.4625 10.0375 6.4625 10.0375 6.4625C11.075 7.2875 11.75 8.56249 11.75 9.99999C11.75 11.4375 11.0875 12.7125 10.0375 13.5375L10.0249 13.5375C8.98747 12.725 8.31248 11.4375 8.31248 10C8.31248 8.56252 8.98748 7.28752 10.025 6.46253C10.025 6.46252 10.025 6.46253 10.025 6.46253L10.0375 6.4625Z" fill="#FF5F00"/>
<path d="M8.31248 10C8.31248 8.56252 8.98748 7.28752 10.025 6.46253C9.26248 5.86253 8.29999 5.50002 7.24999 5.50002C4.7625 5.50002 2.75 7.51251 2.75 10C2.75 12.4875 4.7625 14.5 7.24999 14.5C8.29999 14.5 9.26245 14.1375 10.0249 13.5375C8.98747 12.725 8.31248 11.4375 8.31248 10Z" fill="#EB001B"/>
</svg>
