<svg width="20" height="21" viewBox="0 0 20 21" fill="none" xmlns="http://www.w3.org/2000/svg">
<path fill-rule="evenodd" clip-rule="evenodd" d="M9.10186 4.7467C9.46772 3.99991 10.5322 3.99998 10.898 4.74682L12.2143 7.43471C12.3593 7.73065 12.6407 7.93619 12.9667 7.98421L15.9256 8.42005C16.7432 8.54047 17.0701 9.54423 16.4804 10.1231L14.3314 12.2322C14.0977 12.4616 13.9911 12.7908 14.0461 13.1137L14.5517 16.0842C14.6909 16.9021 13.8308 17.5241 13.0977 17.1356L10.4683 15.7423C10.1754 15.5871 9.82468 15.5871 9.53182 15.7423L6.90243 17.1356C6.16925 17.5241 5.30916 16.9021 5.44839 16.0842L5.95399 13.1137C6.00894 12.7908 5.90235 12.4616 5.66864 12.2322L3.51968 10.123C2.92993 9.5442 3.25688 8.54045 4.0744 8.42001L7.03266 7.98421C7.3586 7.93619 7.63999 7.7307 7.78493 7.43483L9.10186 4.7467Z" fill="#FFCC23"/>
</svg>
