<svg width="48" height="48" viewBox="0 0 48 48" fill="none" xmlns="http://www.w3.org/2000/svg">
<g id="stamp">
<path id="Path" fill-rule="evenodd" clip-rule="evenodd" d="M25.213 6.53923L28.113 5.12123C29.451 4.46723 31.069 4.99123 31.767 6.30923L33.281 9.16123C33.681 9.91323 34.405 10.4392 35.245 10.5872L38.425 11.1452C39.893 11.4032 40.891 12.7772 40.683 14.2532L40.231 17.4492C40.111 18.2932 40.389 19.1452 40.981 19.7572L43.225 22.0772C44.261 23.1472 44.261 24.8472 43.225 25.9192L40.981 28.2392C40.389 28.8512 40.111 29.7032 40.231 30.5472L40.683 33.7432C40.891 35.2192 39.893 36.5932 38.425 36.8512L35.245 37.4092C34.405 37.5572 33.681 38.0832 33.281 38.8352L31.767 41.6872C31.069 43.0032 29.453 43.5292 28.113 42.8752L25.213 41.4572C24.447 41.0832 23.553 41.0832 22.787 41.4572L19.887 42.8752C18.549 43.5292 16.931 43.0052 16.233 41.6872L14.721 38.8352C14.321 38.0832 13.597 37.5572 12.757 37.4092L9.577 36.8512C8.109 36.5932 7.111 35.2192 7.319 33.7432L7.771 30.5472C7.891 29.7032 7.613 28.8512 7.021 28.2392L4.777 25.9192C3.741 24.8492 3.741 23.1492 4.777 22.0772L7.021 19.7572C7.613 19.1452 7.891 18.2932 7.771 17.4492L7.321 14.2532C7.111 12.7792 8.111 11.4032 9.579 11.1472L12.759 10.5892C13.597 10.4412 14.321 9.91523 14.721 9.16323L16.235 6.31123C16.933 4.99523 18.549 4.46923 19.889 5.12323L22.789 6.54123C23.553 6.91523 24.449 6.91523 25.213 6.53923Z" fill="white"/>
<g id="icon-size">
<g id="&#226;&#134;&#187; swap">
<path id="Subtract" fill-rule="evenodd" clip-rule="evenodd" d="M16.5 24C16.5 28.1425 19.8575 31.5 24 31.5C28.1425 31.5 31.5 28.1425 31.5 24C31.5 19.8575 28.1425 16.5 24 16.5C19.8575 16.5 16.5 19.8575 16.5 24ZM28.0405 23.0404C28.431 22.6498 28.431 22.0167 28.0405 21.6261C27.65 21.2356 27.0168 21.2356 26.6263 21.6261L23.1667 25.0857L21.3739 23.2928C20.9833 22.9023 20.3502 22.9023 19.9596 23.2928C19.5691 23.6833 19.5691 24.3165 19.9596 24.707L22.4596 27.207C22.8502 27.5975 23.4833 27.5975 23.8739 27.207L28.0405 23.0404Z" fill="#026490"/>
</g>
</g>
</g>
</svg>
