<svg width="16" height="16" viewBox="0 0 16 16" fill="none" xmlns="http://www.w3.org/2000/svg">
<path fill-rule="evenodd" clip-rule="evenodd" d="M0.5 8C0.5 12.1425 3.8575 15.5 8 15.5C12.1425 15.5 15.5 12.1425 15.5 8C15.5 3.8575 12.1425 0.5 8 0.5C3.8575 0.5 0.5 3.8575 0.5 8ZM12.0405 7.04036C12.431 6.64984 12.431 6.01667 12.0405 5.62615C11.65 5.23562 11.0168 5.23562 10.6263 5.62615L7.16675 9.0857L5.37385 7.29281C4.98333 6.90229 4.35017 6.90229 3.95964 7.29281C3.56912 7.68334 3.56912 8.3165 3.95964 8.70703L6.45964 11.207C6.85017 11.5975 7.48333 11.5975 7.87385 11.207L12.0405 7.04036Z" fill="#026490"/>
</svg>
