<svg width="12" height="12" viewBox="0 0 12 12" fill="none" xmlns="http://www.w3.org/2000/svg">
<path fill-rule="evenodd" clip-rule="evenodd" d="M0 6C0 9.314 2.686 12 6 12C9.314 12 12 9.314 12 6C12 2.686 9.314 0 6 0C2.686 0 0 2.686 0 6ZM9.37384 5.37371C9.76436 4.98318 9.76436 4.35002 9.37384 3.9595C8.98331 3.56897 8.35015 3.56897 7.95963 3.9595L5.3334 6.58572L4.04051 5.29283C3.64998 4.9023 3.01682 4.9023 2.62629 5.29283C2.23577 5.68335 2.23577 6.31652 2.62629 6.70704L4.62629 8.70704C5.01682 9.09757 5.64998 9.09757 6.04051 8.70704L9.37384 5.37371Z" fill="#026490"/>
</svg>
