<svg width="15" height="15" viewBox="0 0 15 15" fill="none" xmlns="http://www.w3.org/2000/svg">
<path fill-rule="evenodd" clip-rule="evenodd" d="M0 7.5C0 11.6425 3.3575 15 7.5 15C11.6425 15 15 11.6425 15 7.5C15 3.3575 11.6425 0 7.5 0C3.3575 0 0 3.3575 0 7.5ZM11.5405 6.54036C11.931 6.14984 11.931 5.51667 11.5405 5.12615C11.15 4.73562 10.5168 4.73562 10.1263 5.12615L6.66675 8.5857L4.87385 6.79281C4.48333 6.40229 3.85017 6.40229 3.45964 6.79281C3.06912 7.18334 3.06912 7.8165 3.45964 8.20703L5.95964 10.707C6.35017 11.0975 6.98333 11.0975 7.37385 10.707L11.5405 6.54036Z" fill="#026490"/>
</svg>
