<svg width="20" height="20" viewBox="0 0 20 20" fill="none" xmlns="http://www.w3.org/2000/svg">
<path d="M17.3269 7.93627C17.9852 8.59463 17.9852 9.66204 17.3269 10.3204C16.6685 10.9788 15.6011 10.9788 14.9427 10.3204C14.2844 9.66204 14.2844 8.59463 14.9427 7.93627C15.6011 7.27792 16.6685 7.27792 17.3269 7.93627" stroke="white" stroke-width="1.5" stroke-linecap="round" stroke-linejoin="round"/>
<path d="M11.8354 4.92705C12.8492 5.94078 12.8492 7.58437 11.8354 8.59812C10.8217 9.61185 9.17809 9.61185 8.16435 8.59812C7.15062 7.58438 7.15062 5.94079 8.16435 4.92705C9.17809 3.91331 10.8217 3.91331 11.8354 4.92705" stroke="white" stroke-width="1.5" stroke-linecap="round" stroke-linejoin="round"/>
<path d="M5.05612 7.93627C5.71448 8.59463 5.71448 9.66204 5.05612 10.3204C4.39776 10.9788 3.33035 10.9788 2.67199 10.3204C2.01363 9.66204 2.01363 8.59463 2.67199 7.93627C3.33035 7.27792 4.39776 7.27792 5.05612 7.93627" stroke="white" stroke-width="1.5" stroke-linecap="round" stroke-linejoin="round"/>
<path d="M19.1661 15.8333V14.92C19.1661 13.7692 18.2336 12.8367 17.0828 12.8367H16.4153" stroke="white" stroke-width="1.5" stroke-linecap="round" stroke-linejoin="round"/>
<path d="M0.83252 15.8333V14.92C0.83252 13.7692 1.76502 12.8367 2.91585 12.8367H3.58335" stroke="white" stroke-width="1.5" stroke-linecap="round" stroke-linejoin="round"/>
<path d="M14.449 15.8334V14.4992C14.449 12.8884 13.1431 11.5825 11.5323 11.5825H8.46647C6.85564 11.5825 5.5498 12.8884 5.5498 14.4992V15.8334" stroke="white" stroke-width="1.5" stroke-linecap="round" stroke-linejoin="round"/>
</svg>
