<svg width="20" height="21" viewBox="0 0 20 21" fill="none" xmlns="http://www.w3.org/2000/svg">
<path fill-rule="evenodd" clip-rule="evenodd" d="M9.10174 4.7467C9.4676 3.99991 10.5321 3.99998 10.8978 4.74682L12.2142 7.43471C12.3591 7.73065 12.6406 7.93619 12.9666 7.98421L15.9255 8.42005C16.743 8.54047 17.07 9.54423 16.4802 10.1231L14.3313 12.2322C14.0976 12.4616 13.991 12.7908 14.046 13.1137L14.5516 16.0842C14.6908 16.9021 13.8307 17.5241 13.0975 17.1356L10.4681 15.7423C10.1753 15.5871 9.82456 15.5871 9.5317 15.7423L6.90231 17.1356C6.16913 17.5241 5.30903 16.9021 5.44826 16.0842L5.95387 13.1137C6.00882 12.7908 5.90223 12.4616 5.66852 12.2322L3.51956 10.123C2.92981 9.5442 3.25676 8.54045 4.07427 8.42001L7.03253 7.98421C7.35848 7.93619 7.63986 7.7307 7.78481 7.43483L9.10174 4.7467Z" fill="#FFCC23"/>
</svg>
