<svg width="21" height="21" viewBox="0 0 21 21" fill="none" xmlns="http://www.w3.org/2000/svg">
<path fill-rule="evenodd" clip-rule="evenodd" d="M17.1667 7.16663H3.83333C3.37333 7.16663 3 7.53996 3 7.99996V9.66663C3 10.1266 3.37333 10.5 3.83333 10.5H17.1667C17.6267 10.5 18 10.1266 18 9.66663V7.99996C18 7.53996 17.6267 7.16663 17.1667 7.16663Z" stroke="white" stroke-width="1.5" stroke-linecap="round" stroke-linejoin="round"/>
<path d="M10.4999 18V7.16663" stroke="white" stroke-width="1.5" stroke-linecap="round" stroke-linejoin="round"/>
<path d="M13.58 6.01001C12.6817 6.94501 11.2675 7.16668 10.5825 7.16668" stroke="white" stroke-width="1.5" stroke-linecap="round" stroke-linejoin="round"/>
<path d="M10.5825 7.16672C10.5825 7.16672 10.1708 4.57006 11.1833 3.51672" stroke="white" stroke-width="1.5" stroke-linecap="round" stroke-linejoin="round"/>
<path d="M13.5799 6.00995C14.2416 5.32162 14.2416 4.20495 13.5799 3.51662C12.9182 2.82828 11.8457 2.82828 11.1841 3.51662" stroke="white" stroke-width="1.5" stroke-linecap="round" stroke-linejoin="round"/>
<path d="M7.41992 6.01001C8.31825 6.94501 9.73242 7.16668 10.4174 7.16668" stroke="white" stroke-width="1.5" stroke-linecap="round" stroke-linejoin="round"/>
<path d="M10.4174 7.16672C10.4174 7.16672 10.829 4.57006 9.81655 3.51672" stroke="white" stroke-width="1.5" stroke-linecap="round" stroke-linejoin="round"/>
<path d="M7.42008 6.00995C6.75841 5.32162 6.75841 4.20495 7.42008 3.51662C8.08174 2.82828 9.15424 2.82828 9.81591 3.51662" stroke="white" stroke-width="1.5" stroke-linecap="round" stroke-linejoin="round"/>
<path d="M16.3334 10.5V17.1667C16.3334 17.6267 15.9601 18 15.5001 18H5.50008C5.04008 18 4.66675 17.6267 4.66675 17.1667V10.5" stroke="white" stroke-width="1.5" stroke-linecap="round" stroke-linejoin="round"/>
</svg>
