<svg width="32" height="32" viewBox="0 0 32 32" fill="none" xmlns="http://www.w3.org/2000/svg">
<path fill-rule="evenodd" clip-rule="evenodd" d="M15.1017 5.6947C15.4676 4.94791 16.5321 4.94798 16.8978 5.69482L19.6817 11.3792C19.8266 11.6751 20.1081 11.8807 20.4341 11.9287L26.6755 12.848C27.493 12.9685 27.82 13.9722 27.2302 14.5511L22.7063 18.9912C22.4726 19.2205 22.366 19.5498 22.421 19.8727L23.4871 26.1362C23.6263 26.9541 22.7662 27.5761 22.033 27.1876L16.4681 24.2388C16.1753 24.0836 15.8246 24.0836 15.5317 24.2388L9.9668 27.1876C9.23362 27.5761 8.37353 26.9541 8.51276 26.1362L9.57887 19.8727C9.63382 19.5498 9.52723 19.2205 9.29351 18.9912L4.76956 14.551C4.17981 13.9722 4.50676 12.9684 5.32427 12.848L11.5645 11.9287C11.8905 11.8807 12.1719 11.6752 12.3168 11.3793L15.1017 5.6947Z" fill="white"/>
</svg>
