<svg width="20" height="20" viewBox="0 0 20 20" fill="none" xmlns="http://www.w3.org/2000/svg">
<path fill-rule="evenodd" clip-rule="evenodd" d="M15.8333 16.6667H4.16667C3.24583 16.6667 2.5 15.9208 2.5 15V7.91667C2.5 6.99583 3.24583 6.25 4.16667 6.25H15.8333C16.7542 6.25 17.5 6.99583 17.5 7.91667V15C17.5 15.9208 16.7542 16.6667 15.8333 16.6667Z" stroke="#13161A" stroke-width="1.5566" stroke-linecap="round" stroke-linejoin="round"/>
<path d="M13.0375 6.25002V4.93919C13.0375 4.01836 12.2917 3.27252 11.3708 3.27252H8.62834C7.7075 3.27252 6.96167 4.01836 6.96167 4.93919V6.25002" stroke="#13161A" stroke-width="1.3416" stroke-linecap="round" stroke-linejoin="round"/>
<path d="M6.24992 6.25V16.6667" stroke="#13161A" stroke-width="1.5" stroke-linecap="round" stroke-linejoin="round"/>
<path d="M13.7499 10.8333V6.25" stroke="#13161A" stroke-width="1.5" stroke-linecap="round" stroke-linejoin="round"/>
<path fill-rule="evenodd" clip-rule="evenodd" d="M10.8333 10.8334H14.9999V13.3334H10.8333V10.8334Z" stroke="#13161A" stroke-width="1.5" stroke-linecap="round" stroke-linejoin="round"/>
<path d="M13.7499 16.6667V13.3334" stroke="#13161A" stroke-width="1.5" stroke-linecap="round" stroke-linejoin="round"/>
</svg>
