<svg width="24" height="24" viewBox="0 0 24 24" fill="none" xmlns="http://www.w3.org/2000/svg">
<path fill-rule="evenodd" clip-rule="evenodd" d="M11.1018 4.72937C11.4677 3.98257 12.5322 3.98264 12.8979 4.72949L14.7035 8.41621C14.8484 8.71215 15.1298 8.91769 15.4558 8.96571L19.5089 9.56272C20.3264 9.68314 20.6534 10.6869 20.0637 11.2657L17.1231 14.1518C16.8894 14.3812 16.7828 14.7105 16.8377 15.0333L17.5302 19.1015C17.6694 19.9195 16.8093 20.5414 16.0761 20.1529L12.4682 18.2411C12.1754 18.0859 11.8246 18.0859 11.5318 18.2411L7.92389 20.1529C7.19071 20.5414 6.33062 19.9195 6.46985 19.1015L7.16229 15.0333C7.21724 14.7105 7.11064 14.3812 6.87693 14.1518L3.9363 11.2657C3.34655 10.6869 3.67351 9.68312 4.49102 9.56268L8.54328 8.96571C8.86923 8.91769 9.15061 8.7122 9.29556 8.41633L11.1018 4.72937Z" fill="white"/>
</svg>
