<svg width="21" height="20" viewBox="0 0 21 20" fill="none" xmlns="http://www.w3.org/2000/svg">
<path fill-rule="evenodd" clip-rule="evenodd" d="M16.3333 16.6667H4.66667C3.74583 16.6667 3 15.9208 3 15V7.91667C3 6.99583 3.74583 6.25 4.66667 6.25H16.3333C17.2542 6.25 18 6.99583 18 7.91667V15C18 15.9208 17.2542 16.6667 16.3333 16.6667Z" stroke="#13161A" stroke-width="1.5566" stroke-linecap="round" stroke-linejoin="round"/>
<path d="M13.5375 6.24996V4.93913C13.5375 4.01829 12.7917 3.27246 11.8708 3.27246H9.12834C8.2075 3.27246 7.46167 4.01829 7.46167 4.93913V6.24996" stroke="#13161A" stroke-width="1.3416" stroke-linecap="round" stroke-linejoin="round"/>
<path d="M6.74992 6.25V16.6667" stroke="#13161A" stroke-width="1.5" stroke-linecap="round" stroke-linejoin="round"/>
<path d="M14.2499 10.8333V6.25" stroke="#13161A" stroke-width="1.5" stroke-linecap="round" stroke-linejoin="round"/>
<path fill-rule="evenodd" clip-rule="evenodd" d="M11.3333 10.8333H15.4999V13.3333H11.3333V10.8333Z" stroke="#13161A" stroke-width="1.5" stroke-linecap="round" stroke-linejoin="round"/>
<path d="M14.2499 16.6666V13.3333" stroke="#13161A" stroke-width="1.5" stroke-linecap="round" stroke-linejoin="round"/>
</svg>
