<svg width="16" height="16" viewBox="0 0 16 16" fill="none" xmlns="http://www.w3.org/2000/svg">
<path d="M2.66675 7.93727V5.39393C2.66675 4.56193 3.18208 3.8166 3.96008 3.5226L9.52875 1.41993C10.4014 1.09127 11.3334 1.73527 11.3334 2.66793V4.90127" stroke="#5AC6DD" stroke-width="1.2" stroke-linecap="round" stroke-linejoin="round"/>
<path d="M11.4994 9.40055C11.4074 9.40122 11.3334 9.47588 11.3334 9.56788C11.3334 9.65988 11.4081 9.73455 11.5001 9.73388C11.5921 9.73388 11.6667 9.65922 11.6667 9.56722C11.6667 9.47522 11.5921 9.40055 11.4994 9.40055" stroke="#5AC6DD" stroke-width="1.2" stroke-linecap="round" stroke-linejoin="round"/>
<path d="M7.10808 14H12.0001C13.1001 14 14.0001 13.1 14.0001 12V6.90063C14.0001 5.79597 13.1047 4.90063 12.0001 4.90063H4.00008C3.26341 4.90063 2.66675 5.4973 2.66675 6.23397V8.1713" stroke="#5AC6DD" stroke-width="1.2" stroke-linecap="round" stroke-linejoin="round"/>
<path d="M4.99992 14.6666C2.97525 14.6666 1.33325 13.0246 1.33325 10.9999C1.33325 8.97525 2.97525 7.33325 4.99992 7.33325C7.02525 7.33325 8.66658 8.97525 8.66658 10.9999C8.66658 13.0246 7.02525 14.6666 4.99992 14.6666" stroke="#5AC6DD" stroke-width="1.2" stroke-linecap="round" stroke-linejoin="round"/>
<path d="M6.62927 10.1853L4.59194 12.2226L3.37061 11" stroke="#5AC6DD" stroke-width="1.2" stroke-linecap="round" stroke-linejoin="round"/>
</svg>
