<svg width="20" height="20" viewBox="0 0 20 20" fill="none" xmlns="http://www.w3.org/2000/svg">
<path fill-rule="evenodd" clip-rule="evenodd" d="M16.6667 6.66675H3.33333C2.87333 6.66675 2.5 7.04008 2.5 7.50008V9.16675C2.5 9.62675 2.87333 10.0001 3.33333 10.0001H16.6667C17.1267 10.0001 17.5 9.62675 17.5 9.16675V7.50008C17.5 7.04008 17.1267 6.66675 16.6667 6.66675Z" stroke="white" stroke-width="1.5" stroke-linecap="round" stroke-linejoin="round"/>
<path d="M9.99992 17.5001V6.66675" stroke="white" stroke-width="1.5" stroke-linecap="round" stroke-linejoin="round"/>
<path d="M13.08 5.51001C12.1817 6.44501 10.7675 6.66668 10.0825 6.66668" stroke="white" stroke-width="1.5" stroke-linecap="round" stroke-linejoin="round"/>
<path d="M10.0825 6.6666C10.0825 6.6666 9.67079 4.06993 10.6833 3.0166" stroke="white" stroke-width="1.5" stroke-linecap="round" stroke-linejoin="round"/>
<path d="M13.0799 5.51007C13.7416 4.82174 13.7416 3.70507 13.0799 3.01674C12.4182 2.3284 11.3457 2.3284 10.6841 3.01674" stroke="white" stroke-width="1.5" stroke-linecap="round" stroke-linejoin="round"/>
<path d="M6.91992 5.51001C7.81825 6.44501 9.23242 6.66668 9.91742 6.66668" stroke="white" stroke-width="1.5" stroke-linecap="round" stroke-linejoin="round"/>
<path d="M9.91738 6.6666C9.91738 6.6666 10.329 4.06993 9.31655 3.0166" stroke="white" stroke-width="1.5" stroke-linecap="round" stroke-linejoin="round"/>
<path d="M6.92008 5.51007C6.25841 4.82174 6.25841 3.70507 6.92008 3.01674C7.58174 2.3284 8.65424 2.3284 9.31591 3.01674" stroke="white" stroke-width="1.5" stroke-linecap="round" stroke-linejoin="round"/>
<path d="M15.8334 10V16.6667C15.8334 17.1267 15.4601 17.5 15.0001 17.5H5.00008C4.54008 17.5 4.16675 17.1267 4.16675 16.6667V10" stroke="white" stroke-width="1.5" stroke-linecap="round" stroke-linejoin="round"/>
</svg>
