<svg width="20" height="20" viewBox="0 0 20 20" fill="none" xmlns="http://www.w3.org/2000/svg">
<path fill-rule="evenodd" clip-rule="evenodd" d="M9.10174 4.2467C9.4676 3.49991 10.5321 3.49998 10.8978 4.24682L12.2142 6.93471C12.3591 7.23065 12.6406 7.43619 12.9666 7.48421L15.9255 7.92005C16.743 8.04047 17.07 9.04423 16.4802 9.62306L14.3313 11.7322C14.0976 11.9616 13.991 12.2908 14.046 12.6137L14.5516 15.5842C14.6908 16.4021 13.8307 17.0241 13.0975 16.6356L10.4681 15.2423C10.1753 15.0871 9.82456 15.0871 9.5317 15.2423L6.90231 16.6356C6.16913 17.0241 5.30903 16.4021 5.44826 15.5842L5.95387 12.6137C6.00882 12.2908 5.90223 11.9616 5.66852 11.7322L3.51956 9.62302C2.92981 9.0442 3.25676 8.04045 4.07427 7.92001L7.03253 7.48421C7.35848 7.43619 7.63986 7.2307 7.78481 6.93483L9.10174 4.2467Z" fill="white"/>
</svg>
