<svg width="16" height="16" viewBox="0 0 16 16" fill="none" xmlns="http://www.w3.org/2000/svg">
<path fill-rule="evenodd" clip-rule="evenodd" d="M7.1019 3.76403C7.46776 3.01724 8.53225 3.01731 8.89801 3.76415L9.72521 5.45321C9.87014 5.74915 10.1516 5.95469 10.4776 6.00271L12.3423 6.27738C13.1599 6.3978 13.4868 7.40157 12.8971 7.9804L11.5398 9.31251C11.3061 9.54189 11.1995 9.87116 11.2545 10.194L11.5732 12.0668C11.7125 12.8848 10.8524 13.5067 10.1192 13.1182L8.4683 12.2434C8.17544 12.0883 7.82472 12.0883 7.53186 12.2434L5.88097 13.1182C5.14779 13.5067 4.2877 12.8848 4.42693 12.0668L4.7457 10.194C4.80065 9.87116 4.69406 9.54189 4.46034 9.31251L3.10305 7.98036C2.5133 7.40154 2.84025 6.39778 3.65777 6.27735L5.52203 6.00271C5.84798 5.95469 6.12936 5.7492 6.27431 5.45333L7.1019 3.76403Z" fill="white"/>
</svg>
